<mxfile host="app.diagrams.net" modified="2023-04-19T16:03:26.696Z" agent="Mozilla/5.0 (Windows NT 10.0; Win64; x64) AppleWebKit/537.36 (KHTML, like Gecko) Chrome/112.0.0.0 Safari/537.36 Edg/112.0.1722.48" version="21.1.9" etag="66HMzCiqJ5pd4-fQvrUb" type="device">
  <diagram id="4xtenXfv9eswE_gLTy2-" name="Page-1">
    <mxGraphModel dx="1970" dy="476" grid="1" gridSize="10" guides="1" tooltips="1" connect="1" arrows="1" fold="1" page="1" pageScale="1" pageWidth="850" pageHeight="1100" math="0" shadow="0">
      <root>
        <mxCell id="0" />
        <mxCell id="1" parent="0" />
        <mxCell id="NuUk2uzvGEqVf4Zh4aXM-1" value="USER" style="rounded=0;whiteSpace=wrap;html=1;" vertex="1" parent="1">
          <mxGeometry x="150" y="130" width="200" height="80" as="geometry" />
        </mxCell>
        <mxCell id="NuUk2uzvGEqVf4Zh4aXM-3" value="DATA PERIKANAN" style="rounded=0;whiteSpace=wrap;html=1;" vertex="1" parent="1">
          <mxGeometry x="150" y="310" width="220" height="100" as="geometry" />
        </mxCell>
        <mxCell id="NuUk2uzvGEqVf4Zh4aXM-4" value="Nama" style="ellipse;whiteSpace=wrap;html=1;" vertex="1" parent="1">
          <mxGeometry x="50" y="30" width="120" height="40" as="geometry" />
        </mxCell>
        <mxCell id="NuUk2uzvGEqVf4Zh4aXM-5" value="Alamat" style="ellipse;whiteSpace=wrap;html=1;" vertex="1" parent="1">
          <mxGeometry x="260" y="30" width="120" height="40" as="geometry" />
        </mxCell>
        <mxCell id="NuUk2uzvGEqVf4Zh4aXM-6" value="id_user" style="ellipse;whiteSpace=wrap;html=1;" vertex="1" parent="1">
          <mxGeometry x="-80" y="130" width="120" height="40" as="geometry" />
        </mxCell>
        <mxCell id="NuUk2uzvGEqVf4Zh4aXM-7" value="Password" style="ellipse;whiteSpace=wrap;html=1;" vertex="1" parent="1">
          <mxGeometry x="-80" y="230" width="120" height="40" as="geometry" />
        </mxCell>
        <mxCell id="NuUk2uzvGEqVf4Zh4aXM-16" value="" style="endArrow=none;html=1;rounded=0;entryX=0;entryY=0.25;entryDx=0;entryDy=0;" edge="1" parent="1" target="NuUk2uzvGEqVf4Zh4aXM-1">
          <mxGeometry width="50" height="50" relative="1" as="geometry">
            <mxPoint x="40" y="149" as="sourcePoint" />
            <mxPoint x="110" y="149" as="targetPoint" />
          </mxGeometry>
        </mxCell>
        <mxCell id="NuUk2uzvGEqVf4Zh4aXM-17" value="" style="endArrow=none;html=1;rounded=0;entryX=0.46;entryY=0.013;entryDx=0;entryDy=0;entryPerimeter=0;" edge="1" parent="1" target="NuUk2uzvGEqVf4Zh4aXM-1">
          <mxGeometry width="50" height="50" relative="1" as="geometry">
            <mxPoint x="130" y="69" as="sourcePoint" />
            <mxPoint x="240" y="70" as="targetPoint" />
            <Array as="points">
              <mxPoint x="190" y="100" />
            </Array>
          </mxGeometry>
        </mxCell>
        <mxCell id="NuUk2uzvGEqVf4Zh4aXM-18" value="" style="endArrow=none;html=1;rounded=0;entryX=0.465;entryY=0.013;entryDx=0;entryDy=0;exitX=0.5;exitY=1;exitDx=0;exitDy=0;entryPerimeter=0;" edge="1" parent="1" source="NuUk2uzvGEqVf4Zh4aXM-5" target="NuUk2uzvGEqVf4Zh4aXM-1">
          <mxGeometry width="50" height="50" relative="1" as="geometry">
            <mxPoint x="60" y="169" as="sourcePoint" />
            <mxPoint x="170" y="170" as="targetPoint" />
          </mxGeometry>
        </mxCell>
        <mxCell id="NuUk2uzvGEqVf4Zh4aXM-22" value="Kapal Ikan" style="ellipse;whiteSpace=wrap;html=1;" vertex="1" parent="1">
          <mxGeometry y="470" width="120" height="40" as="geometry" />
        </mxCell>
        <mxCell id="NuUk2uzvGEqVf4Zh4aXM-23" value="Alat Tangkap" style="ellipse;whiteSpace=wrap;html=1;" vertex="1" parent="1">
          <mxGeometry x="210" y="480" width="120" height="40" as="geometry" />
        </mxCell>
        <mxCell id="NuUk2uzvGEqVf4Zh4aXM-24" value="Jumlah Tangkapan" style="ellipse;whiteSpace=wrap;html=1;" vertex="1" parent="1">
          <mxGeometry x="425" y="480" width="120" height="40" as="geometry" />
        </mxCell>
        <mxCell id="NuUk2uzvGEqVf4Zh4aXM-25" value="" style="endArrow=none;html=1;rounded=0;exitX=0.7;exitY=0.02;exitDx=0;exitDy=0;exitPerimeter=0;" edge="1" parent="1" source="NuUk2uzvGEqVf4Zh4aXM-22">
          <mxGeometry width="50" height="50" relative="1" as="geometry">
            <mxPoint x="100" y="460" as="sourcePoint" />
            <mxPoint x="150" y="410" as="targetPoint" />
          </mxGeometry>
        </mxCell>
        <mxCell id="NuUk2uzvGEqVf4Zh4aXM-26" value="" style="endArrow=none;html=1;rounded=0;entryX=1;entryY=1;entryDx=0;entryDy=0;" edge="1" parent="1" source="NuUk2uzvGEqVf4Zh4aXM-24" target="NuUk2uzvGEqVf4Zh4aXM-3">
          <mxGeometry width="50" height="50" relative="1" as="geometry">
            <mxPoint x="590" y="460" as="sourcePoint" />
            <mxPoint x="530" y="420" as="targetPoint" />
          </mxGeometry>
        </mxCell>
        <mxCell id="NuUk2uzvGEqVf4Zh4aXM-29" value="" style="endArrow=none;html=1;rounded=0;exitX=0.5;exitY=0;exitDx=0;exitDy=0;" edge="1" parent="1" source="NuUk2uzvGEqVf4Zh4aXM-23">
          <mxGeometry width="50" height="50" relative="1" as="geometry">
            <mxPoint x="390" y="470" as="sourcePoint" />
            <mxPoint x="270" y="410" as="targetPoint" />
          </mxGeometry>
        </mxCell>
        <mxCell id="NuUk2uzvGEqVf4Zh4aXM-34" value="" style="endArrow=none;html=1;rounded=0;" edge="1" parent="1">
          <mxGeometry width="50" height="50" relative="1" as="geometry">
            <mxPoint x="249.5" y="310" as="sourcePoint" />
            <mxPoint x="250" y="210" as="targetPoint" />
          </mxGeometry>
        </mxCell>
        <mxCell id="NuUk2uzvGEqVf4Zh4aXM-35" value="" style="endArrow=none;html=1;rounded=0;exitX=1;exitY=0.5;exitDx=0;exitDy=0;" edge="1" parent="1" source="NuUk2uzvGEqVf4Zh4aXM-7">
          <mxGeometry width="50" height="50" relative="1" as="geometry">
            <mxPoint x="100" y="240" as="sourcePoint" />
            <mxPoint x="150" y="190" as="targetPoint" />
          </mxGeometry>
        </mxCell>
      </root>
    </mxGraphModel>
  </diagram>
</mxfile>
